<svg version="1.2" xmlns="http://www.w3.org/2000/svg" viewBox="0 0 224 224" width="224" height="224">
	<title>chartjs-original-svg</title>
	<style>
		.s0 { fill: #e8e8ec } 
		.s1 { fill: #fe767b } 
		.s2 { fill: #ffffff } 
		.s3 { fill: #fe809d } 
		.s4 { fill: #ffcd57 } 
		.s5 { fill: #38a2ea } 
	</style>
	<path id="Layer" fill-rule="evenodd" class="s0" d="m194 142c0 4.7-0.3 8.8 0.1 13 0.3 3.6-1.3 5.4-4.2 7.1-23.7 13.6-47.5 27.2-71.1 41.1-4 2.3-7.3 2.5-11.4 0.1-23.8-14-47.7-27.6-71.6-41.4-2.6-1.5-3.9-3.3-3.9-6.7q0.3-42.2 0-84.4c0-3.4 1.3-5.2 4-6.7 23.8-13.8 47.8-27.5 71.5-41.4 4.2-2.4 7.4-2.2 11.4 0.2 23.7 13.8 47.4 27.4 71.2 41.1 2.8 1.6 4.1 3.5 4.1 7-0.2 23.5-0.1 47-0.1 71zm-151.5-30.2c-0.2 13.6-0.5 27.2-0.5 40.8 0 1.1 2 2.2 3.6 3.7 21.1 12.2 42.3 24.4 63.4 36.8 2.9 1.7 5.1 1.7 8.1 0 21.4-12.5 42.8-24.8 64.2-37.3 1.3-0.8 2.7-2.7 2.7-4.1 0.1-14.8 0-29.6 0-45.1 0-0.8-0.1-1.5 0-3.2 0-9.3 0.2-18.6-0.1-27.9-0.1-1.9-1.4-4.5-3-5.4-20.8-12.3-41.9-24.2-62.7-36.7-4.7-2.8-8-1.3-11.8 0.9-17 9.9-33.8 19.8-50.9 29.4-13.4 7.6-13.6 7.5-13.5 22.9 0.1 8.2 0.4 16.3 0.5 25.2z"/>
	<path id="Layer" class="s1" d="m183.9 107.3c0.1 14.8 0.2 29.6 0.1 44.4 0 1.4-1.4 3.3-2.7 4.1-21.4 12.5-42.8 24.8-64.2 37.3-3 1.7-5.2 1.7-8.1 0-21.1-12.4-42.3-24.6-63.7-37.3 6.3-16.1 15.3-29.9 26.7-42.3 4.3-4.6 9.4-7.1 15.9-6.6 0.1 0 0.1 0.1 0.2 0.5 1.3 3.4 2.5 6.5 4 9.4 4.6 8.8 9 17.8 14.1 26.2 3.2 5.4 8.2 6.1 13.9 3.5 7.3-3.4 10.8-10 14.9-16.3 4.5-7 8.4-15 14.6-20.5 10.1-9.1 22.3-10.1 34.3-2.4z"/>
	<path id="Layer" class="s2" d="m42.6 111c-0.2-8.1-0.5-16.2-0.6-24.4-0.1-15.4 0.1-15.3 13.5-22.9 17.1-9.6 33.9-19.5 50.9-29.4 3.8-2.2 7.1-3.7 11.8-0.9 20.8 12.5 41.9 24.4 62.7 36.7 1.6 0.9 2.9 3.5 3 5.4 0.3 9.3 0.1 18.6-0.3 28.2-4-3.9-7.3-8.7-11.7-12.1-7.6-6.2-17.9-4.5-23.6 3.5-2.8 4.1-4.7 8.8-7.3 13-2.5 4-5.4 7.8-8.2 11.5-4.4-8.4-8-16.8-13-24.3-5.7-8.5-13.9-8.3-20.1-0.1-3.1 4-5.2 8.8-8.1 13.1-1.4-0.5-2.5-0.9-3.6-1.3 0 0 0-0.1-0.2-0.4-3.4-5.3-6.3-10.5-9.8-15.3-7.9-10.4-21.8-8.3-27.9 2.9-2.9 5.3-5 11.2-7.5 16.8z"/>
	<path id="Layer" class="s3" d="m42.6 111.4c2.5-6 4.6-11.9 7.5-17.2 6.1-11.2 20-13.3 27.9-2.9 3.5 4.8 6.4 10 9.7 15.4-6.3-0.3-11.4 2.2-15.7 6.8-11.4 12.4-20.4 26.2-27 42.1-1-0.8-3-1.9-3-3 0-13.6 0.3-27.2 0.6-41.2z"/>
	<path id="Layer" class="s4" d="m88.1 107.4c1 0 2.1 0.4 3.7 1.1 5.7 4.5 10.6 9 16.1 12.6 8.7 5.7 17.8 5 25.1-1.2 2.6-4 5.5-7.8 8-11.8 2.6-4.2 4.5-8.9 7.3-13 5.7-8 16-9.7 23.6-3.5 4.4 3.4 7.7 8.2 11.7 12.6 0.3 0.9 0.4 1.6 0.4 2.7-12.1-7.3-24.3-6.3-34.4 2.8-6.2 5.5-10.1 13.5-14.6 20.5-4.1 6.3-7.6 12.9-14.9 16.3-5.7 2.6-10.7 1.9-13.9-3.5-5.1-8.4-9.5-17.4-14.1-26.2-1.5-2.9-2.7-6-4-9.4z"/>
	<path id="Layer" class="s5" d="m132.8 119.6c-7.1 6.5-16.2 7.2-24.9 1.5-5.5-3.6-10.4-8.1-15.8-12.5 2.4-4.6 4.5-9.4 7.6-13.4 6.2-8.2 14.4-8.4 20.1 0.1 5 7.5 8.6 15.9 13 24.3z"/>
</svg>