<svg version="1.2" xmlns="http://www.w3.org/2000/svg" viewBox="0 0 862 862" width="128" height="128">
	<title>csharp-svg</title>
	<style>
		.s0 { fill: #9a4993 } 
		.s1 { fill: #6a1577 } 
		.s2 { fill: #813084 } 
		.s3 { fill: #ffffff } 
	</style>
	<path id="Layer" class="s0" d="m809.5 255c0-14.3-3-27.1-9.3-37.8q-9.1-16.1-27.3-26.6c-100.8-58.2-201.9-116.3-302.7-174.4-27.3-15.6-53.5-15.2-80.5 0.7-40.2 23.6-241.4 138.9-301.1 173.7-24.8 14.2-36.7 36.1-36.7 64.6v351.1c0 14 3.1 26.3 8.9 37.1 6.1 10.9 15.4 20.3 27.8 27.5 60 34.8 260.9 149.8 301.1 173.7 27 15.8 53.4 16.5 80.5 0.7 100.8-58.4 201.9-116.3 302.7-174.4 12.6-7.2 21.7-16.3 27.8-27.5 5.8-10.8 8.8-23.1 8.8-37.1z"/>
	<path id="Layer" class="s1" d="m431.7 429.3l-371.4 213.8c6.1 11 15.4 20.3 27.8 27.6 60 34.7 260.9 149.8 301.1 173.6 27.1 15.9 53.4 16.6 80.5 0.7 100.8-58.3 201.9-116.2 302.7-174.3 12.6-7.3 21.7-16.4 27.8-27.6z"/>
	<path id="Layer" class="s1" d="m321.7 492.6c21.7 37.8 62.4 63.2 108.8 63.2 46.9 0 87.8-25.6 109.2-63.9l-108-62.6z"/>
	<path id="Layer" class="s2" d="m809.5 255c0-14.3-3-27.1-9.3-37.8l-368.5 212.1 369 213.8c5.8-10.7 8.8-23.1 8.8-37.1z"/>
	<g id="Layer">
		<path id="Layer" class="s3" d="m539.7 491.9c-21.4 38-62.3 63.9-109.2 63.9-46.7 0-87.3-25.4-108.8-63.2-10.5-18.5-16.5-39.5-16.5-62.1 0-69.3 56-125.3 125.3-125.3 46.2 0 86.6 25.2 108.3 62.5l109.5-63c-43.7-75.2-124.9-125.8-218-125.8-139.1 0-251.6 112.7-251.6 251.6 0 45.5 12.1 88.5 33.3 125.3 43.4 75.4 125.1 126.3 218.5 126.3 93.6 0 175.3-51.1 218.7-127zm138.4-120.9h-25v120.7h25zm55.3 0h-25v120.7h25z"/>
		<path id="Layer" class="s3" d="m753.8 391.3h-120.7v25h120.7zm0 55h-120.7v25h120.7z"/>
	</g>
</svg>