<svg version="1.2" xmlns="http://www.w3.org/2000/svg" viewBox="0 0 512 512" width="128" height="128">
	<title>java-original-svg</title>
	<style>
		.s0 { fill: #db380e } 
		.s1 { fill: #73a1fb } 
	</style>
	<g id="Layer">
		<path id="Layer" class="s0" d="m253.5 94.9c-23.7 16.6-50.5 35.5-64.9 66.7-24.9 54.4 51.1 113.8 54.3 116.3 0.8 0.6 1.7 0.9 2.6 0.9 1 0 1.9-0.4 2.7-1 1.5-1.3 1.9-3.4 1-5.2-0.3-0.5-27.5-53.5-26.5-91.5 0.3-13.3 18.9-28.3 38.5-44.2 18-14.6 38.3-31.1 50.2-50.4 26.2-42.5-2.9-84.3-3.2-84.7-1.1-1.7-3.3-2.2-5.1-1.4-1.8 0.8-2.8 2.7-2.4 4.7 0.1 0.3 5.7 27.9-10 56.4-6.5 11.7-20.7 21.8-37.2 33.4z"/>
		<path id="Layer" class="s0" d="m353.1 113.6c1.7-1.2 2.2-3.5 1.2-5.4-1-1.8-3.2-2.6-5.2-1.9-4 1.6-98.4 38-98.4 81.9 0 30.3 13 46.3 22.4 58 3.7 4.6 6.9 8.6 8 12 2.9 9.7-4.1 27.3-7.1 33.3-0.8 1.7-0.4 3.8 1.1 5 0.7 0.7 1.7 1 2.7 1 0.8 0 1.7-0.2 2.4-0.7 1.6-1.1 39.7-28 32.8-60.4-2.5-12.4-8.6-21.4-13.9-29.3-8.3-12.3-14.2-21.2-5.2-37.6 10.6-19.2 58.7-55.5 59.2-55.9z"/>
	</g>
	<g id="Layer">
		<path id="Layer" class="s1" d="m107.4 298.2c-1.6 4.9-0.8 9.7 2.2 13.9 10.3 14.2 46.5 22.1 102.1 22.1q0 0 0 0c7.5 0 15.5-0.2 23.6-0.5 88.9-3.2 121.9-30.8 123.2-32 1.5-1.3 1.9-3.4 1-5.2-0.9-1.7-2.9-2.6-4.8-2-31.3 8.5-89.8 11.5-130.3 11.5-45.4 0-68.5-3.2-74.1-5.6 2.9-4 20.8-11.1 43-15.5 2.1-0.4 3.5-2.4 3.3-4.5-0.2-2.2-2-3.8-4.2-3.8-13 0-78.2 1-85 21.6z"/>
		<path id="Layer" class="s1" d="m404.8 269.7c-18.3 0-35.7 9.2-36.4 9.6-1.7 0.9-2.6 2.8-2.1 4.7 0.4 1.9 2.1 3.2 4 3.2 0.4 0 39.1 0.3 42.7 22.4 3.1 19.1-36.7 50-52.3 60.3-1.6 1.1-2.3 3.3-1.5 5.2 0.7 1.5 2.2 2.5 3.9 2.5q0.4 0 0.8-0.1c3.7-0.8 90.4-19.9 81.3-70.3-5.6-31-25.1-37.5-40.4-37.5z"/>
		<path id="Layer" class="s1" d="m345.3 363.8c0.3-1.7-0.3-3.3-1.7-4.3l-20.8-14.5c-1-0.7-2.3-0.9-3.4-0.6-0.3 0-22 5.7-53.6 9.2-12.5 1.4-26.5 2.2-40.6 2.2-31.5 0-52.1-3.7-55.1-6.4-0.4-0.8-0.3-1.1-0.3-1.3 0.6-1.6 3.5-3.4 5.4-4.1 2.1-0.7 3.2-3 2.6-5.1-0.7-2.2-2.9-3.4-5-2.9-20.9 5-31.1 12.1-30.3 20.9 1.3 15.7 37.6 23.8 68.3 25.9 4.4 0.3 9.2 0.4 14.2 0.4q0 0 0 0c51.1 0 116.6-16 117.2-16.1 1.6-0.4 2.8-1.7 3.1-3.3z"/>
		<path id="Layer" class="s1" d="m188.6 397.4c1.6-1 2.3-3 1.7-4.7-0.5-1.8-2.2-3-4.1-3-2.8 0.1-27.4 1.2-29.1 16.8-0.5 4.7 0.8 9 4 12.7 8.8 10.5 32.6 16.7 72.8 19 4.7 0.3 9.5 0.4 14.3 0.4 51 0 85.4-16 86.8-16.6 1.4-0.7 2.3-2.1 2.4-3.6 0.1-1.5-0.7-3-2-3.8l-26.3-16c-0.9-0.6-2-0.8-3-0.6-0.2 0.1-16.9 3.5-42.1 6.9-4.7 0.7-10.7 1-17.7 1-25.1 0-53.1-4.1-58.5-6.8-0.1-0.5 0-1.1 0.8-1.7z"/>
		<path id="Layer" class="s1" d="m224.4 486.9c116.9-0.1 179.6-20.9 191.7-34 4.2-4.6 4.7-9 4.3-11.9-0.9-7-7.3-11.3-8-11.8-1.8-1.1-4.1-0.8-5.5 0.8-1.3 1.5-1.4 3.8 0 5.4 0.7 1 1.2 2.5-1 4.7-4.8 4.5-53.5 18.2-134.7 22.3-11.1 0.6-22.7 0.9-34.6 0.9-72.6 0-125.8-10-132.7-15.7 2.7-3.9 21.5-10.1 41.4-13.6 2.3-0.4 3.8-2.5 3.5-4.8-0.4-2.2-2.5-3.8-4.7-3.5-0.6 0.1-2.5 0.2-4.7 0.4-33 2-71.1 6.5-73.1 23.5-0.6 5.1 0.9 9.8 4.5 13.9 9 10 34.6 23.3 153.6 23.3q0 0.1 0 0.1z"/>
		<path id="Layer" class="s1" d="m439 456.6c-1.6-0.8-3.6-0.4-4.8 0.9-0.2 0.2-17.8 18.6-70.6 29.4-20.2 4-58.2 6.1-112.8 6.1-54.8 0-106.9-2.2-107.4-2.2-2.1-0.1-4 1.5-4.3 3.6-0.3 2.2 1.1 4.2 3.2 4.7 0.5 0.1 55.1 12.9 129.8 12.9 35.8 0 70.6-2.9 103.5-8.6 61.4-10.8 65.7-41.2 65.8-42.5 0.2-1.8-0.7-3.6-2.4-4.3z"/>
	</g>
</svg>